<svg width="11" height="8" viewBox="0 0 11 8" fill="none" xmlns="http://www.w3.org/2000/svg">
<path d="M9.33115 3.19988H3.26235L5.09675 1.36548C5.17103 1.2912 5.22995 1.20303 5.27014 1.10598C5.31034 1.00893 5.33103 0.904921 5.33103 0.799879C5.33103 0.694838 5.31034 0.590824 5.27014 0.493779C5.22995 0.396733 5.17103 0.308555 5.09675 0.234279C5.02248 0.160003 4.9343 0.101085 4.83725 0.0608872C4.74021 0.0206895 4.63619 -1.56524e-09 4.53115 0C4.42611 1.56524e-09 4.3221 0.0206895 4.22505 0.0608872C4.128 0.101085 4.03983 0.160004 3.96555 0.234279L0.199951 3.99988L3.96555 7.76548C4.03967 7.84003 4.1278 7.89919 4.22487 7.93956C4.32194 7.97993 4.42602 8.00071 4.53115 8.00071C4.63628 8.00071 4.74037 7.97993 4.83743 7.93956C4.9345 7.89919 5.02263 7.84003 5.09675 7.76548C5.17111 7.69125 5.2301 7.60309 5.27035 7.50603C5.3106 7.40898 5.33131 7.30495 5.33131 7.19988C5.33131 7.09481 5.3106 6.99078 5.27035 6.89372C5.2301 6.79667 5.17111 6.70851 5.09675 6.63428L3.26235 4.79988H9.33115C9.54332 4.79988 9.74681 4.71559 9.89684 4.56556C10.0469 4.41554 10.1312 4.21205 10.1312 3.99988C10.1312 3.78771 10.0469 3.58422 9.89684 3.43419C9.74681 3.28416 9.54332 3.19988 9.33115 3.19988Z" fill="#374F59"/>
</svg>
