<svg width="11" height="8" viewBox="0 0 11 8" fill="none" xmlns="http://www.w3.org/2000/svg">
<path d="M9.33121 3.19988H3.26241L5.09681 1.36548C5.17109 1.2912 5.23001 1.20303 5.2702 1.10598C5.3104 1.00893 5.33109 0.904921 5.33109 0.799879C5.33109 0.694838 5.3104 0.590824 5.2702 0.493779C5.23001 0.396733 5.17109 0.308555 5.09681 0.234279C5.02254 0.160003 4.93436 0.101085 4.83731 0.0608872C4.74027 0.0206895 4.63625 -1.56524e-09 4.53121 0C4.42617 1.56524e-09 4.32216 0.0206895 4.22511 0.0608872C4.12807 0.101085 4.03989 0.160004 3.96561 0.234279L0.200012 3.99988L3.96561 7.76548C4.03974 7.84003 4.12786 7.89919 4.22493 7.93956C4.322 7.97993 4.42609 8.00071 4.53121 8.00071C4.63634 8.00071 4.74043 7.97993 4.83749 7.93956C4.93456 7.89919 5.02269 7.84003 5.09681 7.76548C5.17117 7.69125 5.23016 7.60309 5.27041 7.50603C5.31066 7.40898 5.33137 7.30495 5.33137 7.19988C5.33137 7.09481 5.31066 6.99078 5.27041 6.89372C5.23016 6.79667 5.17117 6.70851 5.09681 6.63428L3.26241 4.79988H9.33121C9.54339 4.79988 9.74687 4.71559 9.8969 4.56556C10.0469 4.41554 10.1312 4.21205 10.1312 3.99988C10.1312 3.78771 10.0469 3.58422 9.8969 3.43419C9.74687 3.28416 9.54339 3.19988 9.33121 3.19988Z" fill="white"/>
</svg>
