<svg width="10" height="8" viewBox="0 0 10 8" fill="none" xmlns="http://www.w3.org/2000/svg">
<path d="M1.21015 4.70011L6.52035 4.70011L4.91525 6.30521C4.85026 6.3702 4.79871 6.44735 4.76353 6.53227C4.72836 6.61718 4.71026 6.70819 4.71026 6.80011C4.71026 6.89202 4.72836 6.98303 4.76353 7.06794C4.79871 7.15286 4.85026 7.23001 4.91525 7.29501C4.98024 7.36 5.0574 7.41155 5.14231 7.44672C5.22723 7.4819 5.31824 7.5 5.41015 7.5C5.50206 7.5 5.59307 7.4819 5.67799 7.44672C5.7629 7.41155 5.84006 7.36 5.90505 7.29501L9.19995 4.00011L5.90505 0.705205C5.84019 0.639975 5.76308 0.58821 5.67815 0.552888C5.59322 0.517565 5.50214 0.49938 5.41015 0.49938C5.31817 0.49938 5.22709 0.517565 5.14216 0.552887C5.05722 0.58821 4.98011 0.639975 4.91525 0.705205C4.85019 0.770156 4.79857 0.8473 4.76336 0.932221C4.72814 1.01714 4.71001 1.10817 4.71001 1.20011C4.71001 1.29204 4.72814 1.38307 4.76336 1.46799C4.79857 1.55291 4.85019 1.63005 4.91525 1.69501L6.52035 3.30011L1.21015 3.30011C1.0245 3.30011 0.846452 3.37386 0.715177 3.50513C0.583901 3.63641 0.510152 3.81445 0.510152 4.00011C0.510152 4.18576 0.583901 4.3638 0.715177 4.49508C0.846452 4.62636 1.0245 4.70011 1.21015 4.70011Z" fill="white"/>
</svg>
