<svg width="11" height="8" viewBox="0 0 11 8" fill="none" xmlns="http://www.w3.org/2000/svg">
<path d="M1.66885 4.80012L7.73765 4.80012L5.90325 6.63452C5.82897 6.7088 5.77005 6.79697 5.72986 6.89402C5.68966 6.99107 5.66897 7.09508 5.66897 7.20012C5.66897 7.30516 5.68966 7.40918 5.72986 7.50622C5.77005 7.60327 5.82897 7.69145 5.90325 7.76572C5.97752 7.84 6.0657 7.89891 6.16275 7.93911C6.25979 7.97931 6.36381 8 6.46885 8C6.57389 8 6.6779 7.97931 6.77495 7.93911C6.872 7.89891 6.96017 7.84 7.03445 7.76572L10.8 4.00012L7.03445 0.234519C6.96033 0.159971 6.8722 0.100811 6.77513 0.0604421C6.67806 0.020073 6.57398 -0.000709093 6.46885 -0.000709102C6.36372 -0.000709111 6.25963 0.0200729 6.16257 0.060442C6.0655 0.100811 5.97737 0.159971 5.90325 0.234519C5.82889 0.308749 5.7699 0.396914 5.72965 0.493966C5.68941 0.591018 5.66869 0.695053 5.66869 0.800119C5.66869 0.905186 5.68941 1.00922 5.72965 1.10627C5.7699 1.20333 5.82889 1.29149 5.90325 1.36572L7.73765 3.20012L1.66885 3.20012C1.45668 3.20012 1.25319 3.28441 1.10316 3.43443C0.953134 3.58446 0.868849 3.78795 0.868849 4.00012C0.868849 4.21229 0.953134 4.41578 1.10316 4.56581C1.25319 4.71583 1.45668 4.80012 1.66885 4.80012Z" fill="#374F59"/>
</svg>
