<svg width="32" height="32" viewBox="0 0 32 32" fill="none" xmlns="http://www.w3.org/2000/svg">
<path d="M15.9998 0.166656C12.8683 0.166656 9.80709 1.09527 7.20331 2.83505C4.59954 4.57484 2.57014 7.04767 1.37175 9.94083C0.173364 12.834 -0.140189 16.0176 0.470744 19.0889C1.08168 22.1603 2.58965 24.9815 4.80399 27.1958C7.01832 29.4102 9.83955 30.9182 12.9109 31.5291C15.9823 32.14 19.1658 31.8265 22.059 30.6281C24.9522 29.4297 27.425 27.4003 29.1648 24.7965C30.9046 22.1927 31.8332 19.1315 31.8332 16C31.8287 11.8021 30.1592 7.77739 27.1908 4.80903C24.2224 1.84066 20.1977 0.17109 15.9998 0.166656ZM21.7333 20.0101C21.8465 20.1232 21.9363 20.2576 21.9975 20.4054C22.0587 20.5533 22.0903 20.7118 22.0903 20.8718C22.0903 21.0318 22.0587 21.1903 21.9975 21.3381C21.9363 21.486 21.8465 21.6203 21.7333 21.7335C21.6202 21.8466 21.4858 21.9364 21.338 21.9976C21.1901 22.0589 21.0317 22.0904 20.8716 22.0904C20.7116 22.0904 20.5531 22.0589 20.4053 21.9976C20.2574 21.9364 20.1231 21.8466 20.0099 21.7335L15.9998 17.7219L11.9897 21.7335C11.8766 21.8466 11.7422 21.9364 11.5944 21.9976C11.4465 22.0589 11.2881 22.0904 11.128 22.0904C10.968 22.0904 10.8096 22.0589 10.6617 21.9976C10.5138 21.9364 10.3795 21.8466 10.2663 21.7335C10.1532 21.6203 10.0634 21.486 10.0022 21.3381C9.94094 21.1903 9.90942 21.0318 9.90942 20.8718C9.90942 20.7118 9.94094 20.5533 10.0022 20.4054C10.0634 20.2576 10.1532 20.1232 10.2663 20.0101L14.278 16L10.2663 11.9899C10.0378 11.7614 9.90942 11.4514 9.90942 11.1282C9.90942 10.805 10.0378 10.495 10.2663 10.2665C10.4949 10.038 10.8048 9.90957 11.128 9.90957C11.4512 9.90957 11.7612 10.038 11.9897 10.2665L15.9998 14.2781L20.0099 10.2665C20.1231 10.1533 20.2574 10.0636 20.4053 10.0023C20.5531 9.94109 20.7116 9.90957 20.8716 9.90957C21.0317 9.90957 21.1901 9.94109 21.338 10.0023C21.4858 10.0636 21.6202 10.1533 21.7333 10.2665C21.8465 10.3797 21.9363 10.514 21.9975 10.6618C22.0587 10.8097 22.0903 10.9682 22.0903 11.1282C22.0903 11.2882 22.0587 11.4467 21.9975 11.5945C21.9363 11.7424 21.8465 11.8767 21.7333 11.9899L17.7217 16L21.7333 20.0101Z" fill="#5627D2"/>
</svg>
