<svg width="26" height="26" viewBox="0 0 26 26" fill="none" xmlns="http://www.w3.org/2000/svg">
<path d="M13 0.8125C10.5895 0.8125 8.23322 1.52728 6.22899 2.86646C4.22477 4.20564 2.66267 6.10907 1.74022 8.33604C0.817781 10.563 0.576428 13.0135 1.04668 15.3777C1.51694 17.7418 2.67769 19.9134 4.38214 21.6179C6.08659 23.3223 8.2582 24.4831 10.6223 24.9533C12.9865 25.4236 15.437 25.1822 17.664 24.2598C19.8909 23.3373 21.7944 21.7752 23.1335 19.771C24.4727 17.7668 25.1875 15.4105 25.1875 13C25.1841 9.76872 23.899 6.67076 21.6141 4.3859C19.3292 2.10104 16.2313 0.815912 13 0.8125ZM13 20.5C12.7219 20.5 12.45 20.4175 12.2187 20.263C11.9875 20.1085 11.8072 19.8889 11.7008 19.6319C11.5944 19.3749 11.5665 19.0922 11.6208 18.8194C11.675 18.5466 11.809 18.296 12.0056 18.0994C12.2023 17.9027 12.4529 17.7688 12.7257 17.7145C12.9984 17.6603 13.2812 17.6881 13.5382 17.7945C13.7951 17.901 14.0147 18.0812 14.1693 18.3125C14.3238 18.5437 14.4063 18.8156 14.4063 19.0937C14.4063 19.4667 14.2581 19.8244 13.9944 20.0881C13.7306 20.3518 13.373 20.5 13 20.5ZM13.9375 14.7906V14.875C13.9375 15.1236 13.8387 15.3621 13.6629 15.5379C13.4871 15.7137 13.2486 15.8125 13 15.8125C12.7514 15.8125 12.5129 15.7137 12.3371 15.5379C12.1613 15.3621 12.0625 15.1236 12.0625 14.875V13.9375C12.0625 13.6889 12.1613 13.4504 12.3371 13.2746C12.5129 13.0988 12.7514 13 13 13C14.5504 13 15.8125 11.9453 15.8125 10.6562C15.8125 9.36719 14.5504 8.3125 13 8.3125C11.4496 8.3125 10.1875 9.36719 10.1875 10.6562V11.125C10.1875 11.3736 10.0887 11.6121 9.91292 11.7879C9.7371 11.9637 9.49864 12.0625 9.25 12.0625C9.00136 12.0625 8.76291 11.9637 8.58709 11.7879C8.41128 11.6121 8.3125 11.3736 8.3125 11.125V10.6562C8.3125 8.33008 10.4148 6.4375 13 6.4375C15.5852 6.4375 17.6875 8.33008 17.6875 10.6562C17.6875 12.693 16.075 14.398 13.9375 14.7906Z" fill="#5627D2"/>
</svg>
