<svg width="28" height="28" viewBox="0 0 28 28" fill="none" xmlns="http://www.w3.org/2000/svg">
<rect x="0.25" y="0.25" width="27.5" height="27.5" rx="13.75" fill="white" fill-opacity="0.8"/>
<rect x="0.25" y="0.25" width="27.5" height="27.5" rx="13.75" stroke="#D0D0D0" stroke-width="0.5"/>
<path d="M14 6.125C12.3595 6.12686 10.7868 6.77935 9.62683 7.93933C8.46685 9.09931 7.81436 10.672 7.8125 12.3125C7.8125 17.607 13.4375 21.6057 13.6773 21.773C13.7718 21.8393 13.8845 21.8748 14 21.8748C14.1155 21.8748 14.2282 21.8393 14.3227 21.773C14.5625 21.6057 20.1875 17.607 20.1875 12.3125C20.1856 10.672 19.5331 9.09931 18.3732 7.93933C17.2132 6.77935 15.6405 6.12686 14 6.125ZM14 10.0625C14.445 10.0625 14.88 10.1945 15.25 10.4417C15.62 10.6889 15.9084 11.0403 16.0787 11.4515C16.249 11.8626 16.2936 12.315 16.2068 12.7515C16.12 13.1879 15.9057 13.5888 15.591 13.9035C15.2763 14.2182 14.8754 14.4325 14.439 14.5193C14.0025 14.6061 13.5501 14.5615 13.139 14.3912C12.7278 14.2209 12.3764 13.9325 12.1292 13.5625C11.882 13.1925 11.75 12.7575 11.75 12.3125C11.75 11.7158 11.9871 11.1435 12.409 10.7215C12.831 10.2996 13.4033 10.0625 14 10.0625Z" fill="#6C69C5"/>
</svg>
