<svg width="28" height="28" viewBox="0 0 28 28" fill="none" xmlns="http://www.w3.org/2000/svg">
<rect x="0.25" y="0.25" width="27.5" height="27.5" rx="13.75" fill="white" fill-opacity="0.8"/>
<rect x="0.25" y="0.25" width="27.5" height="27.5" rx="13.75" stroke="#D0D0D0" stroke-width="0.5"/>
<path d="M13.6875 17.6716C13.782 17.7256 13.8889 17.754 13.9977 17.754C14.1065 17.754 14.2134 17.7256 14.3078 17.6716C14.4992 17.5615 18.9953 14.9373 18.9953 10.2537C18.956 8.95469 18.4125 7.72203 17.48 6.8169C16.5474 5.91177 15.2991 5.40529 13.9996 5.40479C12.7 5.40428 11.4513 5.90978 10.518 6.81418C9.58475 7.71858 9.04029 8.95082 9 10.2498C9 14.9373 13.4984 17.5576 13.6875 17.6716ZM14 8.37477C14.3708 8.37477 14.7334 8.48474 15.0417 8.69076C15.35 8.89679 15.5904 9.18963 15.7323 9.53224C15.8742 9.87485 15.9113 10.2518 15.839 10.6156C15.7666 10.9793 15.588 11.3134 15.3258 11.5756C15.0636 11.8378 14.7295 12.0164 14.3658 12.0887C14.0021 12.1611 13.6251 12.124 13.2825 11.982C12.9399 11.8401 12.647 11.5998 12.441 11.2915C12.235 10.9831 12.125 10.6206 12.125 10.2498C12.125 9.75249 12.3225 9.27557 12.6742 8.92394C13.0258 8.57231 13.5027 8.37477 14 8.37477ZM22.75 18.3748C22.75 20.8107 18.2414 22.1248 14 22.1248C9.75859 22.1248 5.25 20.8107 5.25 18.3748C5.25 17.2349 6.28281 16.2256 8.15859 15.5334C8.31242 15.4825 8.47997 15.4934 8.62592 15.5638C8.77187 15.6341 8.88481 15.7583 8.94094 15.9103C8.99707 16.0622 8.99199 16.2301 8.92679 16.3784C8.86158 16.5267 8.74134 16.6439 8.59141 16.7052C7.30156 17.1826 6.5 17.8216 6.5 18.3748C6.5 19.4185 9.35313 20.8748 14 20.8748C18.6469 20.8748 21.5 19.4185 21.5 18.3748C21.5 17.8216 20.6984 17.1826 19.4086 16.706C19.2587 16.6447 19.1384 16.5275 19.0732 16.3792C19.008 16.2309 19.0029 16.063 19.0591 15.9111C19.1152 15.7591 19.2281 15.6349 19.3741 15.5645C19.52 15.4942 19.6876 15.4833 19.8414 15.5341C21.7172 16.2256 22.75 17.2349 22.75 18.3748Z" fill="#FF0D0D"/>
</svg>
