<svg width="28" height="28" viewBox="0 0 28 28" fill="none" xmlns="http://www.w3.org/2000/svg">
<path d="M23.625 5.25H4.375C4.0269 5.25 3.69306 5.38828 3.44692 5.63442C3.20078 5.88056 3.0625 6.2144 3.0625 6.5625C3.0625 6.9106 3.20078 7.24444 3.44692 7.49058C3.69306 7.73672 4.0269 7.875 4.375 7.875H4.8125V22.75C4.8125 23.3302 5.04297 23.8866 5.4532 24.2968C5.86344 24.707 6.41984 24.9375 7 24.9375H21C21.5802 24.9375 22.1366 24.707 22.5468 24.2968C22.957 23.8866 23.1875 23.3302 23.1875 22.75V7.875H23.625C23.9731 7.875 24.3069 7.73672 24.5531 7.49058C24.7992 7.24444 24.9375 6.9106 24.9375 6.5625C24.9375 6.2144 24.7992 5.88056 24.5531 5.63442C24.3069 5.38828 23.9731 5.25 23.625 5.25ZM20.5625 22.3125H7.4375V7.875H20.5625V22.3125ZM8.3125 2.1875C8.3125 1.8394 8.45078 1.50556 8.69692 1.25942C8.94306 1.01328 9.2769 0.875 9.625 0.875H18.375C18.7231 0.875 19.0569 1.01328 19.3031 1.25942C19.5492 1.50556 19.6875 1.8394 19.6875 2.1875C19.6875 2.5356 19.5492 2.86944 19.3031 3.11558C19.0569 3.36172 18.7231 3.5 18.375 3.5H9.625C9.2769 3.5 8.94306 3.36172 8.69692 3.11558C8.45078 2.86944 8.3125 2.5356 8.3125 2.1875Z" fill="#5627D2"/>
</svg>
