<svg width="27" height="27" viewBox="0 0 27 27" fill="none" xmlns="http://www.w3.org/2000/svg">
<path d="M13.5 0.90625C11.0092 0.90625 8.57432 1.64486 6.50329 3.02868C4.43226 4.4125 2.81809 6.37937 1.8649 8.68058C0.911707 10.9818 0.662308 13.514 1.14824 15.9569C1.63417 18.3999 2.83361 20.6439 4.59488 22.4051C6.35615 24.1664 8.60014 25.3658 11.0431 25.8518C13.486 26.3377 16.0182 26.0883 18.3194 25.1351C20.6206 24.1819 22.5875 22.5677 23.9713 20.4967C25.3551 18.4257 26.0938 15.9908 26.0938 13.5C26.0902 10.161 24.7623 6.95979 22.4012 4.59877C20.0402 2.23775 16.839 0.909776 13.5 0.90625ZM6.97063 21.916C7.67144 20.82 8.63689 19.918 9.77797 19.2932C10.9191 18.6684 12.1991 18.3409 13.5 18.3409C14.8009 18.3409 16.081 18.6684 17.222 19.2932C18.3631 19.918 19.3286 20.82 20.0294 21.916C18.1625 23.3679 15.865 24.1562 13.5 24.1562C11.135 24.1562 8.83749 23.3679 6.97063 21.916ZM9.62501 12.5312C9.62501 11.7648 9.85227 11.0157 10.2781 10.3784C10.7039 9.74118 11.309 9.24451 12.0171 8.95122C12.7252 8.65793 13.5043 8.58119 14.256 8.73071C15.0077 8.88022 15.6981 9.24928 16.24 9.79121C16.782 10.3331 17.151 11.0236 17.3005 11.7753C17.4501 12.527 17.3733 13.3061 17.08 14.0141C16.7867 14.7222 16.2901 15.3274 15.6528 15.7532C15.0156 16.179 14.2664 16.4062 13.5 16.4062C12.4723 16.4062 11.4867 15.998 10.76 15.2713C10.0333 14.5446 9.62501 13.559 9.62501 12.5312ZM21.4631 20.5731C20.3827 19.0074 18.8635 17.7962 17.0965 17.0916C18.0456 16.3441 18.7382 15.3193 19.078 14.1598C19.4177 13.0004 19.3877 11.7639 18.9921 10.6223C18.5965 9.48066 17.855 8.4907 16.8707 7.79005C15.8864 7.08941 14.7082 6.71291 13.5 6.71291C12.2918 6.71291 11.1136 7.08941 10.1293 7.79005C9.14501 8.4907 8.4035 9.48066 8.0079 10.6223C7.61231 11.7639 7.58229 13.0004 7.92203 14.1598C8.26177 15.3193 8.95437 16.3441 9.90352 17.0916C8.13654 17.7962 6.61732 19.0074 5.53688 20.5731C4.17163 19.0378 3.2793 17.1406 2.96733 15.1099C2.65536 13.0793 2.93705 11.0017 3.7785 9.12742C4.61994 7.25314 5.98526 5.66206 7.71003 4.54577C9.43481 3.42948 11.4455 2.83557 13.5 2.83557C15.5545 2.83557 17.5652 3.42948 19.29 4.54577C21.0148 5.66206 22.3801 7.25314 23.2215 9.12742C24.063 11.0017 24.3447 13.0793 24.0327 15.1099C23.7207 17.1406 22.8284 19.0378 21.4631 20.5731Z" fill="#5627D2"/>
</svg>
